<?xml version="1.0" standalone="no"?>
<!DOCTYPE svg PUBLIC "-//W3C//DTD SVG 20010904//EN"
 "http://www.w3.org/TR/2001/REC-SVG-20010904/DTD/svg10.dtd">
<svg version="1.0" xmlns="http://www.w3.org/2000/svg"
 width="320.000000pt" height="320.000000pt" viewBox="0 0 320.000000 320.000000"
 preserveAspectRatio="xMidYMid meet">
<metadata>
Created by potrace 1.14, written by Peter Selinger 2001-2017
</metadata>
<g transform="translate(0.000000,320.000000) scale(0.100000,-0.100000)"
fill="#000000" stroke="none">
<path d="M717 1882 c-361 -361 -657 -662 -657 -668 0 -7 55 -10 169 -10 l169
1 173 174 c96 95 183 179 194 185 23 14 519 15 532 2 4 -4 8 -47 8 -94 l0 -87
119 -3 c74 -2 122 1 126 8 5 7 6 1083 1 1138 -1 8 -26 12 -89 12 l-87 0 -658
-658z m588 82 c1 -112 -2 -135 -15 -138 -29 -9 -260 -4 -260 5 0 12 263 277
270 272 3 -3 5 -65 5 -139z"/>
<path d="M2082 2519 c-252 -72 -426 -311 -417 -574 5 -168 60 -292 179 -403
107 -100 180 -135 321 -156 78 -11 200 -2 260 19 88 32 156 75 225 144 82 82
129 160 153 252 19 75 23 262 5 275 -10 8 -633 12 -681 5 -4 0 -6 -56 -5 -123
l3 -123 195 -1 c261 -2 235 2 213 -35 -40 -70 -130 -139 -202 -157 -14 -4 -57
-7 -96 -7 -126 1 -239 75 -292 192 -37 80 -37 186 0 266 52 115 160 188 283
193 104 4 174 -21 249 -92 30 -28 31 -28 168 -28 105 -1 137 2 137 12 0 61
-148 231 -252 291 -126 71 -303 91 -446 50z"/>
<path d="M2 974 l3 -77 1595 0 1595 0 3 77 3 76 -1601 0 -1601 0 3 -76z"/>
<path d="M0 734 l0 -80 1600 0 1600 0 0 78 c0 67 -2 78 -17 79 -10 0 -730 1
-1600 2 l-1583 2 0 -81z"/>
<path d="M0 493 l0 -88 1587 1 c874 1 1594 2 1601 3 8 1 12 25 12 86 l0 85
-1600 0 -1600 0 0 -87z"/>
</g>
</svg>
