<svg xmlns="http://www.w3.org/2000/svg" viewBox="0 0 1833.32 276.49"><defs><style>.cls-1{fill:#f2f2f2}.cls-2{fill:#060709;}.cls-3{fill:#f21921;}.cls-4{fill:#fecf0d;}</style></defs><title>logo</title><g ><path class="cls-1" d="M327.61-552.43,155.83-379.74h46.56l47.35-48h69.65v25h32.87V-552.43Zm-8.41,91.82H281.83L319.2-497Z" transform="translate(-53.3 553.18)"/><polygon class="cls-1" points="424.43 0.75 547.3 0.75 547.3 33.1 504.26 33.1 504.26 150.49 471.91 150.49 471.91 33.1 424.17 33.1 424.43 0.75"/><path class="cls-1" d="M670.9-552.88A74.87,74.87,0,0,0,596-478a74.87,74.87,0,0,0,74.87,74.87A74.87,74.87,0,0,0,745.77-478,74.87,74.87,0,0,0,670.9-552.88Zm0,117.54A42.66,42.66,0,0,1,628.23-478a42.66,42.66,0,0,1,42.67-42.67A42.66,42.66,0,0,1,713.57-478,42.66,42.66,0,0,1,670.9-435.34Z" transform="translate(-53.3 553.18)"/><path class="cls-1" d="M813.8-494.07v32.39l55.33,0a42.68,42.68,0,0,1-39.32,26.06,42.68,42.68,0,0,1-42.67-42.67A42.68,42.68,0,0,1,829.81-521a42.58,42.58,0,0,1,33.73,16.53l36.47,0a74.89,74.89,0,0,0-70.2-48.77,74.87,74.87,0,0,0-74.87,74.87,74.87,74.87,0,0,0,74.87,74.86,74.87,74.87,0,0,0,74.87-74.86,75.49,75.49,0,0,0-1.6-15.51Z" transform="translate(-53.3 553.18)"/><rect class="cls-1" x="865.15" y="0.75" width="139.7" height="29.74"/><rect class="cls-1" x="865.15" y="60.53" width="139.7" height="29.74"/><rect class="cls-1" x="865.15" y="120.44" width="139.7" height="29.74"/><path class="cls-1" d="M361.73-477.23a74.87,74.87,0,0,0,74.87,74.87,74.87,74.87,0,0,0,74.87-74.87l.64-30.6H479.83l-.56,30.6a42.68,42.68,0,0,1-42.67,42.68,42.68,42.68,0,0,1-42.68-42.68v-75.53H362.24Z" transform="translate(-53.3 553.18)"/><polygon class="cls-1" points="1080 150.49 1120.3 150.49 1192.3 78.49 1192.3 148.14 1263.13 79.27 1263.13 150.49 1295.22 150.49 1295.22 0.75 1225.57 69.88 1225.57 0.75 1080 150.49"/><path class="cls-1" d="M1365.35-552.43V-402.7h32.87v-25h69.65l47.35,48,.39-46.43L1390-552.43ZM1398.41-497l37.37,36.39h-37.37Z" transform="translate(-53.3 553.18)"/><polygon class="cls-1" points="1402.17 0.75 1402.17 49.53 1434.52 82.14 1434.52 55.27 1552.17 173.44 1552.17 64.14 1520.09 23.97 1520.09 94.92 1426.43 0.75 1402.17 0.75"/><polygon class="cls-1" points="1515.17 0.75 1552.74 0.75 1596.26 53.97 1638.78 0.75 1676.61 0.75 1612.43 79.79 1612.43 109.79 1580.09 150.49 1580.09 79.53 1515.17 0.75"/><path class="cls-1" d="M1193-508.93c0-46-44.81-44-44.81-44h-74.54V-402.7h30.13v-62.8L1138.39-426l22.7-22.69L1148.17-463S1193-457.09,1193-508.93Zm-42.65,15.84h-46.57v-29.74l46.57.2s12.66.26,12.66,14.48C1163-492.7,1150.33-493.09,1150.33-493.09Z" transform="translate(-53.3 553.18)"/><polygon class="cls-2" points="62.61 212.31 84.52 191.18 1562.87 191.18 1717.3 1.79 1750.17 1.79 1580.09 212.58 62.61 212.31"/><polygon class="cls-3" points="30.91 244.01 52.83 222.88 1585.04 222.88 1763.7 1.79 1792.17 1.79 1595.74 244.27 30.91 244.01"/><polygon class="cls-4" points="0 276.23 21.91 255.1 1599.83 255.1 1804.37 1.86 1833.33 1.86 1610.61 276.49 0 276.23"/></g></svg>